ChauncyRegular_WeightMin.ufo
<glyph name="A" format="2">
  <advance width="630"/>
  <unicode hex="0041"/>
  <anchor x="342" y="731" name="center"/>
  <outline>
    <contour>
      <point x="154" y="266" type="line"/>
      <point x="157" y="243" type="line"/>
      <point x="460" y="243" type="line"/>
      <point x="454" y="266" type="line"/>
    </contour>
    <contour>
      <point x="192" y="10" type="curve" smooth="yes"/>
      <point x="192.0" y="13.6"/>
      <point x="189" y="17"/>
      <point x="179" y="19" type="curve" smooth="yes"/>
      <point x="143" y="27" type="line" smooth="yes"/>
      <point x="116" y="33"/>
      <point x="110" y="64"/>
      <point x="127" y="112" type="curve" smooth="yes"/>
      <point x="311" y="649" type="line"/>
      <point x="321" y="649" type="line"/>
      <point x="515" y="72" type="line" smooth="yes"/>
      <point x="521" y="55"/>
      <point x="513" y="35"/>
      <point x="489" y="30" type="curve" smooth="yes"/>
      <point x="449" y="21" type="line" smooth="yes"/>
      <point x="442" y="19"/>
      <point x="438" y="16"/>
      <point x="438" y="10" type="curve" smooth="yes"/>
      <point x="438.0" y="4.0"/>
      <point x="443" y="0"/>
      <point x="452" y="0" type="curve" smooth="yes"/>
      <point x="627" y="0" type="line" smooth="yes"/>
      <point x="634.0" y="0.0"/>
      <point x="640.0" y="3.0"/>
      <point x="640" y="9" type="curve" smooth="yes"/>
      <point x="640.0" y="13"/>
      <point x="635" y="17"/>
      <point x="624" y="20" type="curve" smooth="yes"/>
      <point x="596" y="28"/>
      <point x="579" y="43"/>
      <point x="570" y="70" type="curve" smooth="yes"/>
      <point x="373" y="641" type="line" smooth="yes"/>
      <point x="366" y="662"/>
      <point x="370" y="673"/>
      <point x="381" y="680" type="curve" smooth="yes"/>
      <point x="389" y="685"/>
      <point x="394.0" y="688.0"/>
      <point x="394" y="692" type="curve" smooth="yes"/>
      <point x="394" y="697"/>
      <point x="390.0" y="700.0"/>
      <point x="384" y="700" type="curve" smooth="yes"/>
      <point x="264" y="700" type="line" smooth="yes"/>
      <point x="258" y="700"/>
      <point x="254" y="697"/>
      <point x="254" y="692" type="curve" smooth="yes"/>
      <point x="254.0" y="688"/>
      <point x="258" y="683"/>
      <point x="268" y="680" type="curve" smooth="yes"/>
      <point x="281" y="676"/>
      <point x="284.522159299891" y="663.0802242115126"/>
      <point x="280" y="650" type="curve" smooth="yes"/>
      <point x="94" y="112" type="line" smooth="yes"/>
      <point x="71" y="46"/>
      <point x="45" y="28"/>
      <point x="15" y="19" type="curve" smooth="yes"/>
      <point x="3" y="15"/>
      <point x="0.0" y="12"/>
      <point x="0" y="7" type="curve" smooth="yes"/>
      <point x="0.0" y="2.0"/>
      <point x="4" y="0"/>
      <point x="12" y="0" type="curve" smooth="yes"/>
      <point x="178" y="0" type="line" smooth="yes"/>
      <point x="186.75" y="0"/>
      <point x="192.0" y="4.0"/>
    </contour>
  </outline>
</glyph>
<glyph name="C" format="2">
  <advance width="664"/>
  <unicode hex="0043"/>
  <anchor x="362" y="775" name="center"/>
  <outline>
    <contour>
      <point x="637" y="152" type="curve" smooth="yes"/>
      <point x="637" y="160"/>
      <point x="633" y="166"/>
      <point x="624" y="166" type="curve" smooth="yes"/>
      <point x="616" y="166"/>
      <point x="609" y="160"/>
      <point x="598" y="148" type="curve" smooth="yes"/>
      <point x="558" y="105"/>
      <point x="486" y="76"/>
      <point x="411" y="76" type="curve" smooth="yes"/>
      <point x="247" y="76"/>
      <point x="134" y="200"/>
      <point x="134" y="378" type="curve" smooth="yes"/>
      <point x="134" y="555"/>
      <point x="237" y="659"/>
      <point x="380" y="659" type="curve" smooth="yes"/>
      <point x="450" y="659"/>
      <point x="500" y="628"/>
      <point x="570" y="540" type="curve" smooth="yes"/>
      <point x="588" y="518"/>
      <point x="600" y="509"/>
      <point x="614" y="509" type="curve" smooth="yes"/>
      <point x="627" y="509"/>
      <point x="637" y="519"/>
      <point x="637" y="532" type="curve" smooth="yes"/>
      <point x="637" y="540"/>
      <point x="635" y="546"/>
      <point x="628" y="567" type="curve" smooth="yes"/>
      <point x="590" y="681" type="line" smooth="yes"/>
      <point x="582" y="706"/>
      <point x="574" y="715"/>
      <point x="561" y="715" type="curve" smooth="yes"/>
      <point x="542" y="715"/>
      <point x="539" y="686"/>
      <point x="518" y="686" type="curve" smooth="yes"/>
      <point x="495" y="686"/>
      <point x="454" y="713"/>
      <point x="382" y="713" type="curve" smooth="yes"/>
      <point x="183" y="713"/>
      <point x="37" y="558"/>
      <point x="37" y="338" type="curve" smooth="yes"/>
      <point x="37" y="130"/>
      <point x="166" y="-15"/>
      <point x="367" y="-15" type="curve" smooth="yes"/>
      <point x="521" y="-15"/>
      <point x="637" y="74"/>
    </contour>
  </outline>
</glyph>
<glyph name="D" format="2">
  <advance width="765"/>
  <unicode hex="0044"/>
  <outline>
    <contour>
      <point x="53" y="7" type="curve" smooth="yes"/>
      <point x="53.0" y="2.0"/>
      <point x="59.6" y="0"/>
      <point x="64" y="0" type="curve" smooth="yes"/>
      <point x="349" y="0" type="line" smooth="yes"/>
      <point x="545" y="0"/>
      <point x="693" y="134"/>
      <point x="693" y="330" type="curve" smooth="yes"/>
      <point x="693.0" y="551.0"/>
      <point x="524" y="700"/>
      <point x="298" y="700" type="curve" smooth="yes"/>
      <point x="68" y="700" type="line" smooth="yes"/>
      <point x="61.75" y="700"/>
      <point x="53.0" y="698.0"/>
      <point x="53" y="692" type="curve" smooth="yes"/>
      <point x="53.0" y="685.6363636363636"/>
      <point x="58" y="684"/>
      <point x="67" y="682" type="curve" smooth="yes"/>
      <point x="111" y="674" type="line" smooth="yes"/>
      <point x="131.1347908209666" y="670.3391289416425"/>
      <point x="143" y="653.5"/>
      <point x="143" y="633" type="curve" smooth="yes"/>
      <point x="143" y="69" type="line" smooth="yes"/>
      <point x="143" y="48"/>
      <point x="129.9034580811564" y="32.86126932119916"/>
      <point x="109" y="28" type="curve" smooth="yes"/>
      <point x="66" y="18" type="line" smooth="yes"/>
      <point x="60" y="17"/>
      <point x="53" y="14"/>
    </contour>
    <contour>
      <point x="352" y="25" type="curve" smooth="yes"/>
      <point x="239" y="25" type="line" smooth="yes"/>
      <point x="210.140350877193" y="25"/>
      <point x="192" y="48"/>
      <point x="192" y="77" type="curve" smooth="yes"/>
      <point x="192" y="644" type="line" smooth="yes"/>
      <point x="192" y="662.1463414634146"/>
      <point x="202.31578947368422" y="675"/>
      <point x="220" y="675" type="curve" smooth="yes"/>
      <point x="297" y="675" type="line" smooth="yes"/>
      <point x="493" y="675"/>
      <point x="634.0" y="536.0"/>
      <point x="634" y="345" type="curve" smooth="yes"/>
      <point x="634" y="169"/>
      <point x="528" y="25"/>
    </contour>
  </outline>
</glyph>
<glyph name="H" format="2">
  <advance width="741"/>
  <unicode hex="0048"/>
  <outline>
    <contour>
      <point x="164" y="338" type="line"/>
      <point x="164" y="315" type="line"/>
      <point x="584" y="315" type="line"/>
      <point x="584" y="338" type="line"/>
    </contour>
    <component base="I" xOffset="-6"/>
    <component base="I" xOffset="413"/>
  </outline>
</glyph>
<glyph name="I" format="2">
  <advance width="334"/>
  <unicode hex="0049"/>
  <outline>
    <contour>
      <point x="191" y="71" type="curve" smooth="yes"/>
      <point x="191" y="636" type="line" smooth="yes"/>
      <point x="191.0" y="656.0"/>
      <point x="199" y="665"/>
      <point x="216" y="670" type="curve" smooth="yes"/>
      <point x="269" y="685" type="line" smooth="yes"/>
      <point x="274" y="686"/>
      <point x="278" y="689"/>
      <point x="278" y="694" type="curve" smooth="yes"/>
      <point x="278" y="698"/>
      <point x="275" y="700"/>
      <point x="268" y="700" type="curve" smooth="yes"/>
      <point x="67" y="700" type="line" smooth="yes"/>
      <point x="60.333333333333336" y="700"/>
      <point x="57.0" y="697.6666666666666"/>
      <point x="57" y="693" type="curve" smooth="yes"/>
      <point x="57.0" y="688.5"/>
      <point x="61" y="686"/>
      <point x="67" y="684" type="curve" smooth="yes"/>
      <point x="118" y="670" type="line" smooth="yes"/>
      <point x="134" y="666"/>
      <point x="142.0" y="656.0"/>
      <point x="142" y="636" type="curve" smooth="yes"/>
      <point x="142" y="71" type="line" smooth="yes"/>
      <point x="142" y="45"/>
      <point x="128" y="34"/>
      <point x="105" y="27" type="curve" smooth="yes"/>
      <point x="67" y="16" type="line" smooth="yes"/>
      <point x="60" y="14"/>
      <point x="56.0" y="14.000000000000002"/>
      <point x="56" y="6" type="curve" smooth="yes"/>
      <point x="56.0" y="2.0"/>
      <point x="60.66666666666667" y="0"/>
      <point x="70" y="0" type="curve" smooth="yes"/>
      <point x="264" y="0" type="line" smooth="yes"/>
      <point x="273" y="0"/>
      <point x="277.0" y="2.0"/>
      <point x="277" y="6" type="curve" smooth="yes"/>
      <point x="277.0" y="12.999999999999998"/>
      <point x="273" y="14"/>
      <point x="267" y="16" type="curve" smooth="yes"/>
      <point x="228" y="27" type="line" smooth="yes"/>
      <point x="203" y="34"/>
      <point x="191" y="45"/>
    </contour>
  </outline>
</glyph>
<glyph name="N" format="2">
  <advance width="746"/>
  <unicode hex="004E"/>
  <outline>
    <contour>
      <point x="264" y="11" type="curve" smooth="yes"/>
      <point x="264" y="17"/>
      <point x="259" y="18"/>
      <point x="247" y="22" type="curve" smooth="yes"/>
      <point x="206" y="35" type="line" smooth="yes"/>
      <point x="179" y="44"/>
      <point x="166" y="58"/>
      <point x="166" y="78" type="curve" smooth="yes"/>
      <point x="166" y="595" type="line"/>
      <point x="159" y="577" type="line"/>
      <point x="587" y="37" type="line" smooth="yes"/>
      <point x="592" y="30"/>
      <point x="594" y="24"/>
      <point x="594" y="15" type="curve" smooth="yes"/>
      <point x="594" y="7"/>
      <point x="598" y="0"/>
      <point x="607" y="0" type="curve" smooth="yes"/>
      <point x="659" y="0" type="line" smooth="yes"/>
      <point x="667" y="0"/>
      <point x="672" y="4"/>
      <point x="672" y="12" type="curve" smooth="yes"/>
      <point x="672" y="17"/>
      <point x="670" y="22"/>
      <point x="665" y="27" type="curve" smooth="yes"/>
      <point x="639" y="57" type="line" smooth="yes"/>
      <point x="631" y="67"/>
      <point x="626" y="77"/>
      <point x="626" y="92" type="curve" smooth="yes"/>
      <point x="626" y="614" type="line" smooth="yes"/>
      <point x="626" y="635"/>
      <point x="638" y="650"/>
      <point x="656" y="657" type="curve" smooth="yes"/>
      <point x="706" y="678" type="line" smooth="yes"/>
      <point x="715" y="682"/>
      <point x="719" y="685"/>
      <point x="719" y="690" type="curve" smooth="yes"/>
      <point x="719" y="696"/>
      <point x="712" y="700"/>
      <point x="703" y="700" type="curve" smooth="yes"/>
      <point x="506" y="700" type="line" smooth="yes"/>
      <point x="497" y="700"/>
      <point x="492" y="697"/>
      <point x="492" y="690" type="curve" smooth="yes"/>
      <point x="492" y="685"/>
      <point x="497" y="681"/>
      <point x="506" y="678" type="curve" smooth="yes"/>
      <point x="556" y="661" type="line" smooth="yes"/>
      <point x="587" y="650"/>
      <point x="595" y="637"/>
      <point x="595" y="616" type="curve" smooth="yes"/>
      <point x="595" y="90" type="line"/>
      <point x="610" y="85" type="line"/>
      <point x="135" y="683" type="line" smooth="yes"/>
      <point x="125" y="695"/>
      <point x="116" y="700"/>
      <point x="104" y="700" type="curve" smooth="yes"/>
      <point x="74" y="700" type="line" smooth="yes"/>
      <point x="64.0" y="700.0"/>
      <point x="57" y="697"/>
      <point x="57" y="690" type="curve" smooth="yes"/>
      <point x="57" y="684"/>
      <point x="59" y="681"/>
      <point x="67" y="672" type="curve" smooth="yes"/>
      <point x="124" y="607" type="line" smooth="yes"/>
      <point x="132" y="598"/>
      <point x="134" y="590"/>
      <point x="134" y="576" type="curve" smooth="yes"/>
      <point x="134" y="78" type="line" smooth="yes"/>
      <point x="134" y="60"/>
      <point x="119" y="45"/>
      <point x="96" y="37" type="curve" smooth="yes"/>
      <point x="50" y="22" type="line" smooth="yes"/>
      <point x="40" y="19"/>
      <point x="35" y="15"/>
      <point x="35" y="8" type="curve" smooth="yes"/>
      <point x="35" y="2"/>
      <point x="42" y="0"/>
      <point x="51" y="0" type="curve" smooth="yes"/>
      <point x="246" y="0" type="line" smooth="yes"/>
      <point x="257" y="0"/>
      <point x="264" y="4"/>
    </contour>
  </outline>
</glyph>
<glyph name="c" format="2">
  <advance width="458"/>
  <unicode hex="0063"/>
  <anchor x="280" y="527" name="center"/>
  <outline>
    <contour>
      <point x="435" y="372" type="curve" smooth="yes"/>
      <point x="435" y="431"/>
      <point x="368" y="479"/>
      <point x="286" y="479" type="curve" smooth="yes"/>
      <point x="146" y="479"/>
      <point x="33" y="365"/>
      <point x="33" y="215" type="curve" smooth="yes"/>
      <point x="33" y="87"/>
      <point x="128" y="-15"/>
      <point x="251" y="-15" type="curve" smooth="yes"/>
      <point x="356" y="-15"/>
      <point x="432" y="55"/>
      <point x="432" y="104" type="curve" smooth="yes"/>
      <point x="432" y="113"/>
      <point x="427" y="118"/>
      <point x="419" y="118" type="curve" smooth="yes"/>
      <point x="412" y="118"/>
      <point x="403" y="113"/>
      <point x="392" y="103" type="curve" smooth="yes"/>
      <point x="370" y="83"/>
      <point x="342" y="68"/>
      <point x="296" y="68" type="curve" smooth="yes"/>
      <point x="193" y="68"/>
      <point x="106" y="148"/>
      <point x="106" y="263" type="curve" smooth="yes"/>
      <point x="106" y="354"/>
      <point x="171" y="423"/>
      <point x="252" y="423" type="curve" smooth="yes"/>
      <point x="296" y="423"/>
      <point x="323" y="408"/>
      <point x="323" y="389" type="curve" smooth="yes"/>
      <point x="323" y="373" type="line" smooth="yes"/>
      <point x="323" y="338"/>
      <point x="348" y="313"/>
      <point x="379" y="313" type="curve" smooth="yes"/>
      <point x="409" y="313"/>
      <point x="435" y="339"/>
    </contour>
  </outline>
</glyph>
<glyph name="l" format="2">
  <advance width="267"/>
  <unicode hex="006C"/>
  <outline>
    <contour>
      <point x="161" y="698" type="curve" smooth="yes"/>
      <point x="161" y="60" type="line" smooth="yes"/>
      <point x="161" y="47"/>
      <point x="168" y="39"/>
      <point x="184" y="33" type="curve" smooth="yes"/>
      <point x="227" y="18" type="line" smooth="yes"/>
      <point x="234" y="16"/>
      <point x="237" y="13"/>
      <point x="237" y="8" type="curve" smooth="yes"/>
      <point x="237" y="3"/>
      <point x="233" y="0"/>
      <point x="225" y="0" type="curve" smooth="yes"/>
      <point x="52" y="0" type="line" smooth="yes"/>
      <point x="43" y="0"/>
      <point x="38" y="2"/>
      <point x="38" y="7" type="curve" smooth="yes"/>
      <point x="38" y="12"/>
      <point x="42" y="15"/>
      <point x="51" y="18" type="curve" smooth="yes"/>
      <point x="97" y="34" type="line" smooth="yes"/>
      <point x="111" y="39"/>
      <point x="120" y="47"/>
      <point x="120" y="61" type="curve" smooth="yes"/>
      <point x="120" y="633" type="line" smooth="yes"/>
      <point x="120" y="644"/>
      <point x="112" y="653"/>
      <point x="99" y="653" type="curve" smooth="yes"/>
      <point x="43" y="653" type="line" smooth="yes"/>
      <point x="37" y="653"/>
      <point x="32" y="655"/>
      <point x="32" y="660" type="curve" smooth="yes"/>
      <point x="32" y="665"/>
      <point x="37" y="670"/>
      <point x="40" y="671" type="curve" smooth="yes"/>
      <point x="130" y="707" type="line" smooth="yes"/>
      <point x="139" y="711"/>
      <point x="145" y="713"/>
      <point x="150" y="713" type="curve" smooth="yes"/>
      <point x="157" y="713"/>
      <point x="161" y="707"/>
    </contour>
  </outline>
</glyph>
<glyph name="n" format="2">
  <advance width="583"/>
  <unicode hex="006E"/>
  <outline>
    <contour>
      <point x="168" y="458" type="line" smooth="yes"/>
      <point x="168" y="467"/>
      <point x="164" y="473"/>
      <point x="157" y="473" type="curve" smooth="yes"/>
      <point x="152" y="473"/>
      <point x="146" y="471"/>
      <point x="137" y="467" type="curve" smooth="yes"/>
      <point x="47" y="431" type="line" smooth="yes"/>
      <point x="44" y="430"/>
      <point x="39" y="425"/>
      <point x="39" y="420" type="curve" smooth="yes"/>
      <point x="39" y="415"/>
      <point x="44" y="413"/>
      <point x="50" y="413" type="curve" smooth="yes"/>
      <point x="106" y="413" type="line" smooth="yes"/>
      <point x="119" y="413"/>
      <point x="127" y="404"/>
      <point x="127" y="393" type="curve" smooth="yes"/>
      <point x="127" y="61" type="line" smooth="yes"/>
      <point x="127" y="47"/>
      <point x="118" y="39"/>
      <point x="104" y="34" type="curve" smooth="yes"/>
      <point x="58" y="18" type="line" smooth="yes"/>
      <point x="49" y="15"/>
      <point x="45" y="12"/>
      <point x="45" y="7" type="curve" smooth="yes"/>
      <point x="45" y="2"/>
      <point x="50" y="0"/>
      <point x="59" y="0" type="curve" smooth="yes"/>
      <point x="232" y="0" type="line" smooth="yes"/>
      <point x="240" y="0"/>
      <point x="244" y="3"/>
      <point x="244" y="8" type="curve" smooth="yes"/>
      <point x="244" y="13"/>
      <point x="241" y="16"/>
      <point x="234" y="18" type="curve" smooth="yes"/>
      <point x="191" y="33" type="line" smooth="yes"/>
      <point x="175" y="39"/>
      <point x="168" y="47"/>
      <point x="168" y="60" type="curve" smooth="yes"/>
    </contour>
    <contour>
      <point x="157" y="368" type="line" smooth="yes"/>
      <point x="173" y="382" type="line" smooth="yes"/>
      <point x="226" y="429"/>
      <point x="264" y="443"/>
      <point x="299" y="443" type="curve" smooth="yes"/>
      <point x="356" y="443"/>
      <point x="397" y="410"/>
      <point x="407" y="337" type="curve" smooth="yes"/>
      <point x="445" y="63" type="line" smooth="yes"/>
      <point x="447" y="46"/>
      <point x="440" y="37"/>
      <point x="427" y="33" type="curve" smooth="yes"/>
      <point x="381" y="20" type="line" smooth="yes"/>
      <point x="375" y="18"/>
      <point x="371" y="14"/>
      <point x="371" y="9" type="curve" smooth="yes"/>
      <point x="371" y="4"/>
      <point x="376" y="0"/>
      <point x="383" y="0" type="curve" smooth="yes"/>
      <point x="550" y="0" type="line" smooth="yes"/>
      <point x="559" y="0"/>
      <point x="563" y="4"/>
      <point x="563" y="8" type="curve" smooth="yes"/>
      <point x="563" y="11"/>
      <point x="562" y="14"/>
      <point x="557" y="16" type="curve" smooth="yes"/>
      <point x="512" y="34" type="line" smooth="yes"/>
      <point x="501" y="38"/>
      <point x="494" y="47"/>
      <point x="492" y="59" type="curve" smooth="yes"/>
      <point x="449" y="341" type="line" smooth="yes"/>
      <point x="436" y="428"/>
      <point x="383" y="473"/>
      <point x="317" y="473" type="curve" smooth="yes"/>
      <point x="267" y="473"/>
      <point x="227" y="454"/>
      <point x="168" y="401" type="curve" smooth="yes"/>
      <point x="145" y="380" type="line"/>
    </contour>
  </outline>
</glyph>
<glyph name="o" format="2">
  <advance width="551"/>
  <unicode hex="006F"/>
  <outline>
    <contour>
      <point x="283" y="472" type="curve" smooth="yes"/>
      <point x="141" y="472"/>
      <point x="40" y="375"/>
      <point x="40" y="233" type="curve" smooth="yes"/>
      <point x="40" y="95"/>
      <point x="127" y="-15"/>
      <point x="265" y="-15" type="curve" smooth="yes"/>
      <point x="411" y="-15"/>
      <point x="511" y="87"/>
      <point x="511" y="233" type="curve" smooth="yes"/>
      <point x="511" y="369"/>
      <point x="419" y="472"/>
    </contour>
    <contour>
      <point x="461" y="206" type="curve" smooth="yes"/>
      <point x="461" y="100"/>
      <point x="396" y="12"/>
      <point x="290" y="12" type="curve" smooth="yes"/>
      <point x="159" y="12"/>
      <point x="86" y="125"/>
      <point x="86" y="256" type="curve" smooth="yes"/>
      <point x="86" y="362"/>
      <point x="153" y="446"/>
      <point x="259" y="446" type="curve" smooth="yes"/>
      <point x="390" y="446"/>
      <point x="461" y="337"/>
    </contour>
  </outline>
</glyph>
<glyph name="brokenbar" format="2">
  <advance width="357"/>
  <unicode hex="00A6"/>
  <outline>
    <contour>
      <point x="207" y="734" type="line" smooth="yes"/>
      <point x="207" y="750"/>
      <point x="199" y="765"/>
      <point x="180" y="766" type="curve" smooth="yes"/>
      <point x="161" y="767"/>
      <point x="150" y="751"/>
      <point x="150" y="734" type="curve" smooth="yes"/>
      <point x="150" y="347" type="line" smooth="yes"/>
      <point x="150" y="330"/>
      <point x="161" y="314"/>
      <point x="180" y="315" type="curve" smooth="yes"/>
      <point x="199" y="316"/>
      <point x="207" y="331"/>
      <point x="207" y="347" type="curve" smooth="yes"/>
    </contour>
    <contour>
      <point x="207" y="174" type="line" smooth="yes"/>
      <point x="207" y="190"/>
      <point x="199" y="205"/>
      <point x="180" y="206" type="curve" smooth="yes"/>
      <point x="161" y="207"/>
      <point x="150" y="191"/>
      <point x="150" y="174" type="curve" smooth="yes"/>
      <point x="150" y="-213" type="line" smooth="yes"/>
      <point x="150" y="-230"/>
      <point x="161" y="-246"/>
      <point x="180" y="-245" type="curve" smooth="yes"/>
      <point x="199" y="-244"/>
      <point x="207" y="-229"/>
      <point x="207" y="-213" type="curve" smooth="yes"/>
    </contour>
  </outline>
</glyph>
<glyph name="Hbar" format="2">
  <advance width="803"/>
  <unicode hex="0126"/>
  <outline>
    <contour>
      <point x="51" y="514" type="curve" smooth="yes"/>
      <point x="51" y="501"/>
      <point x="58" y="493"/>
      <point x="71" y="493" type="curve" smooth="yes"/>
      <point x="740" y="493" type="line" smooth="yes"/>
      <point x="753" y="493"/>
      <point x="762" y="501"/>
      <point x="762" y="514" type="curve" smooth="yes"/>
      <point x="762" y="526"/>
      <point x="753" y="535"/>
      <point x="740" y="535" type="curve" smooth="yes"/>
      <point x="72" y="535" type="line" smooth="yes"/>
      <point x="60" y="535"/>
      <point x="51" y="526"/>
    </contour>
    <component base="H"/>
  </outline>
</glyph>
<glyph name="hbar" format="2">
  <advance width="607"/>
  <unicode hex="0127"/>
  <outline>
    <contour>
      <point x="31" y="536" type="curve" smooth="yes"/>
      <point x="31" y="548"/>
      <point x="40" y="557"/>
      <point x="52" y="557" type="curve" smooth="yes"/>
      <point x="271" y="557" type="line" smooth="yes"/>
      <point x="284" y="557"/>
      <point x="293" y="548"/>
      <point x="293" y="536" type="curve" smooth="yes"/>
      <point x="293" y="523"/>
      <point x="284" y="515"/>
      <point x="271" y="515" type="curve" smooth="yes"/>
      <point x="51" y="515" type="line" smooth="yes"/>
      <point x="38" y="515"/>
      <point x="31" y="523"/>
    </contour>
    <component base="h"/>
  </outline>
</glyph>
<glyph name="Eng" format="2">
  <advance width="804"/>
  <unicode hex="014A"/>
  <outline>
    <contour>
      <point x="607" y="-128" type="curve" smooth="yes"/>
      <point x="607" y="-167"/>
      <point x="588" y="-194"/>
      <point x="559" y="-194" type="curve" smooth="yes"/>
      <point x="539" y="-194"/>
      <point x="528" y="-183"/>
      <point x="528" y="-163" type="curve" smooth="yes"/>
      <point x="528" y="-146" type="line" smooth="yes"/>
      <point x="528" y="-116"/>
      <point x="507" y="-96"/>
      <point x="474" y="-96" type="curve" smooth="yes"/>
      <point x="440" y="-96"/>
      <point x="419" y="-120"/>
      <point x="419" y="-158" type="curve" smooth="yes"/>
      <point x="419" y="-206"/>
      <point x="470" y="-244"/>
      <point x="531" y="-244" type="curve" smooth="yes"/>
      <point x="611" y="-244"/>
      <point x="671" y="-189"/>
      <point x="671" y="-111" type="curve" smooth="yes"/>
      <point x="671" y="-59"/>
      <point x="669" y="-12"/>
      <point x="669" y="33" type="curve" smooth="yes"/>
      <point x="669" y="587" type="line"/>
      <point x="669" y="606"/>
      <point x="687" y="620"/>
      <point x="708" y="632" type="curve" smooth="yes"/>
      <point x="739" y="648" type="line" smooth="yes"/>
      <point x="757" y="657"/>
      <point x="762" y="665"/>
      <point x="762" y="677" type="curve" smooth="yes"/>
      <point x="762" y="690"/>
      <point x="751" y="700"/>
      <point x="734" y="700" type="curve" smooth="yes"/>
      <point x="532" y="700" type="line" smooth="yes"/>
      <point x="517" y="700"/>
      <point x="508" y="695"/>
      <point x="508" y="681" type="curve" smooth="yes"/>
      <point x="508" y="667"/>
      <point x="517" y="656"/>
      <point x="538" y="647" type="curve" smooth="yes"/>
      <point x="572" y="632" type="line" smooth="yes"/>
      <point x="602" y="619"/>
      <point x="611" y="608"/>
      <point x="611" y="587" type="curve" smooth="yes"/>
      <point x="611" y="149" type="line"/>
      <point x="624" y="156" type="line"/>
      <point x="213" y="660" type="line" smooth="yes"/>
      <point x="185" y="693"/>
      <point x="173" y="700"/>
      <point x="151" y="700" type="curve" smooth="yes"/>
      <point x="70" y="700" type="line" smooth="yes"/>
      <point x="51" y="700"/>
      <point x="39" y="693"/>
      <point x="39" y="678" type="curve" smooth="yes"/>
      <point x="39" y="663"/>
      <point x="49" y="658"/>
      <point x="67" y="648" type="curve" smooth="yes"/>
      <point x="96" y="634" type="line" smooth="yes"/>
      <point x="119" y="621"/>
      <point x="135" y="605"/>
      <point x="135" y="579" type="curve" smooth="yes"/>
      <point x="135" y="108" type="line" smooth="yes"/>
      <point x="135" y="88"/>
      <point x="118" y="73"/>
      <point x="96" y="63" type="curve" smooth="yes"/>
      <point x="69" y="51" type="line" smooth="yes"/>
      <point x="48" y="42"/>
      <point x="36" y="35"/>
      <point x="36" y="19" type="curve" smooth="yes"/>
      <point x="36" y="5"/>
      <point x="49" y="0"/>
      <point x="67" y="0" type="curve" smooth="yes"/>
      <point x="256" y="0" type="line" smooth="yes"/>
      <point x="277" y="0"/>
      <point x="291" y="8"/>
      <point x="291" y="22" type="curve" smooth="yes"/>
      <point x="291" y="37"/>
      <point x="284" y="43"/>
      <point x="268" y="50" type="curve" smooth="yes"/>
      <point x="241" y="63" type="line" smooth="yes"/>
      <point x="212" y="76"/>
      <point x="193" y="87"/>
      <point x="193" y="108" type="curve" smooth="yes"/>
      <point x="193" y="545" type="line"/>
      <point x="180" y="539" type="line"/>
      <point x="574" y="65" type="line" smooth="yes"/>
      <point x="595" y="40"/>
      <point x="607" y="9"/>
      <point x="607" y="-34" type="curve" smooth="yes"/>
      <point x="607" y="-76"/>
      <point x="607" y="-102"/>
    </contour>
  </outline>
</glyph>
<glyph name="dong" format="2">
  <advance width="483"/>
  <unicode hex="20AB"/>
  <outline>
    <contour>
      <point x="205" y="515" type="curve" smooth="yes"/>
      <point x="205" y="504"/>
      <point x="210" y="498"/>
      <point x="221" y="498" type="curve" smooth="yes"/>
      <point x="415" y="498" type="line" smooth="yes"/>
      <point x="426" y="498"/>
      <point x="433" y="504"/>
      <point x="433" y="515" type="curve" smooth="yes"/>
      <point x="433" y="525"/>
      <point x="426" y="532"/>
      <point x="415" y="532" type="curve" smooth="yes"/>
      <point x="222" y="532" type="line" smooth="yes"/>
      <point x="212" y="532"/>
      <point x="205" y="525"/>
    </contour>
    <contour>
      <point x="373" y="646" type="line" smooth="yes"/>
      <point x="373" y="660"/>
      <point x="365" y="668"/>
      <point x="353" y="668" type="curve" smooth="yes"/>
      <point x="344" y="668"/>
      <point x="334" y="664"/>
      <point x="320" y="657" type="curve" smooth="yes"/>
      <point x="251" y="621" type="line" smooth="yes"/>
      <point x="240" y="615"/>
      <point x="233" y="607"/>
      <point x="233" y="599" type="curve" smooth="yes"/>
      <point x="233" y="592"/>
      <point x="239" y="587"/>
      <point x="248" y="587" type="curve" smooth="yes"/>
      <point x="267" y="587" type="line" smooth="yes"/>
      <point x="286" y="587"/>
      <point x="298" y="579"/>
      <point x="298" y="558" type="curve" smooth="yes"/>
      <point x="298" y="150" type="line" smooth="yes"/>
      <point x="298" y="120"/>
      <point x="311" y="110"/>
      <point x="341" y="110" type="curve" smooth="yes"/>
      <point x="409" y="110" type="line" smooth="yes"/>
      <point x="426" y="110"/>
      <point x="432" y="117"/>
      <point x="432" y="127" type="curve" smooth="yes"/>
      <point x="432" y="137"/>
      <point x="425" y="142"/>
      <point x="410" y="146" type="curve" smooth="yes"/>
      <point x="396" y="150" type="line" smooth="yes"/>
      <point x="382" y="154"/>
      <point x="373" y="165"/>
      <point x="373" y="190" type="curve" smooth="yes"/>
    </contour>
    <contour>
      <point x="334" y="220" type="line"/>
      <point x="301" y="186"/>
      <point x="276" y="168"/>
      <point x="247" y="168" type="curve" smooth="yes"/>
      <point x="177" y="168"/>
      <point x="126" y="225"/>
      <point x="126" y="303" type="curve" smooth="yes"/>
      <point x="126" y="366"/>
      <point x="167" y="409"/>
      <point x="224" y="409" type="curve" smooth="yes"/>
      <point x="264" y="409"/>
      <point x="298" y="396"/>
      <point x="317" y="364" type="curve"/>
      <point x="345" y="391" type="line"/>
      <point x="313" y="436"/>
      <point x="275" y="455"/>
      <point x="216" y="455" type="curve" smooth="yes"/>
      <point x="125" y="455"/>
      <point x="50" y="376"/>
      <point x="50" y="264" type="curve" smooth="yes"/>
      <point x="50" y="175"/>
      <point x="113" y="109"/>
      <point x="198" y="109" type="curve" smooth="yes"/>
      <point x="250" y="109"/>
      <point x="306" y="141"/>
      <point x="350" y="205" type="curve"/>
    </contour>
    <contour>
      <point x="85" y="26" type="curve" smooth="yes"/>
      <point x="85" y="11"/>
      <point x="95" y="1"/>
      <point x="112" y="1" type="curve" smooth="yes"/>
      <point x="381" y="1" type="line" smooth="yes"/>
      <point x="397" y="1"/>
      <point x="408" y="11"/>
      <point x="408" y="26" type="curve" smooth="yes"/>
      <point x="408" y="42"/>
      <point x="397" y="53"/>
      <point x="381" y="53" type="curve" smooth="yes"/>
      <point x="113" y="53" type="line" smooth="yes"/>
      <point x="97" y="53"/>
      <point x="85" y="42"/>
    </contour>
  </outline>
</glyph>
<glyph name="Euro" format="2">
  <advance width="703"/>
  <unicode hex="20AC"/>
  <outline>
    <contour>
      <point x="628" y="71" type="curve" smooth="yes"/>
      <point x="638" y="82"/>
      <point x="643" y="90"/>
      <point x="643" y="98" type="curve" smooth="yes"/>
      <point x="643" y="107"/>
      <point x="636" y="114"/>
      <point x="626" y="114" type="curve" smooth="yes"/>
      <point x="616" y="114"/>
      <point x="605" y="109"/>
      <point x="594" y="100" type="curve" smooth="yes"/>
      <point x="569" y="80"/>
      <point x="526" y="68"/>
      <point x="477" y="68" type="curve" smooth="yes"/>
      <point x="326" y="68"/>
      <point x="221" y="184"/>
      <point x="221" y="350" type="curve" smooth="yes"/>
      <point x="221" y="511"/>
      <point x="305" y="609"/>
      <point x="422" y="609" type="curve" smooth="yes"/>
      <point x="498" y="609"/>
      <point x="539" y="584"/>
      <point x="543" y="543" type="curve" smooth="yes"/>
      <point x="546" y="508" type="line" smooth="yes"/>
      <point x="548" y="486"/>
      <point x="560" y="473"/>
      <point x="575" y="473" type="curve" smooth="yes"/>
      <point x="593" y="473"/>
      <point x="602" y="487"/>
      <point x="606" y="505" type="curve" smooth="yes"/>
      <point x="630" y="610" type="line" smooth="yes"/>
      <point x="635" y="632"/>
      <point x="635" y="635"/>
      <point x="635" y="637" type="curve" smooth="yes"/>
      <point x="635" y="650"/>
      <point x="626" y="659"/>
      <point x="615" y="659" type="curve" smooth="yes"/>
      <point x="605" y="659"/>
      <point x="598" y="654"/>
      <point x="591" y="644" type="curve" smooth="yes"/>
      <point x="585" y="636"/>
      <point x="577" y="632"/>
      <point x="567" y="632" type="curve" smooth="yes"/>
      <point x="559" y="632"/>
      <point x="552" y="633"/>
      <point x="535" y="641" type="curve" smooth="yes"/>
      <point x="505" y="654"/>
      <point x="470" y="659"/>
      <point x="421" y="659" type="curve" smooth="yes"/>
      <point x="254" y="659"/>
      <point x="130" y="514"/>
      <point x="130" y="309" type="curve" smooth="yes"/>
      <point x="130" y="119"/>
      <point x="257" y="-16"/>
      <point x="433" y="-16" type="curve" smooth="yes"/>
      <point x="499" y="-16"/>
      <point x="563" y="13"/>
    </contour>
    <contour>
      <point x="50" y="260" type="curve" smooth="yes"/>
      <point x="50" y="245"/>
      <point x="59" y="235"/>
      <point x="75" y="235" type="curve" smooth="yes"/>
      <point x="519" y="235" type="line" smooth="yes"/>
      <point x="535" y="235"/>
      <point x="545" y="245"/>
      <point x="545" y="260" type="curve" smooth="yes"/>
      <point x="545" y="276"/>
      <point x="534" y="287"/>
      <point x="519" y="287" type="curve" smooth="yes"/>
      <point x="76" y="287" type="line" smooth="yes"/>
      <point x="61" y="287"/>
      <point x="50" y="276"/>
    </contour>
    <contour>
      <point x="50" y="382" type="curve" smooth="yes"/>
      <point x="50" y="367"/>
      <point x="59" y="357"/>
      <point x="75" y="357" type="curve" smooth="yes"/>
      <point x="539" y="357" type="line" smooth="yes"/>
      <point x="555" y="357"/>
      <point x="565" y="367"/>
      <point x="565" y="382" type="curve" smooth="yes"/>
      <point x="565" y="398"/>
      <point x="554" y="409"/>
      <point x="539" y="409" type="curve" smooth="yes"/>
      <point x="76" y="409" type="line" smooth="yes"/>
      <point x="61" y="409"/>
      <point x="50" y="398"/>
    </contour>
  </outline>
</glyph>
<glyph name="cedi" format="2">
  <advance width="561"/>
  <unicode hex="20B5"/>
  <outline>
    <contour>
      <point x="295" y="-34" type="curve" smooth="yes"/>
      <point x="295" y="-59"/>
      <point x="308" y="-70"/>
      <point x="322" y="-70" type="curve" smooth="yes"/>
      <point x="341" y="-70"/>
      <point x="354" y="-58"/>
      <point x="355" y="-34" type="curve" smooth="yes"/>
      <point x="356" y="10"/>
      <point x="343" y="63"/>
      <point x="343" y="335" type="curve" smooth="yes"/>
      <point x="343" y="581"/>
      <point x="352" y="626"/>
      <point x="352" y="668" type="curve" smooth="yes"/>
      <point x="352" y="692"/>
      <point x="337" y="704"/>
      <point x="322" y="704" type="curve" smooth="yes"/>
      <point x="306" y="704"/>
      <point x="291" y="693"/>
      <point x="291" y="670" type="curve" smooth="yes"/>
      <point x="291" y="633"/>
      <point x="300" y="585"/>
      <point x="300" y="335" type="curve" smooth="yes"/>
      <point x="300" y="65"/>
      <point x="295" y="10"/>
    </contour>
    <component base="C" xScale="0.873094454912691" yScale="0.873094454912691" xOffset="-2" yOffset="13"/>
  </outline>
</glyph>
<glyph name="minus" format="2">
  <advance width="498"/>
  <unicode hex="2212"/>
  <outline>
    <contour>
      <point x="50" y="302" type="curve" smooth="yes"/>
      <point x="50" y="284"/>
      <point x="67" y="270"/>
      <point x="86" y="270" type="curve" smooth="yes"/>
      <point x="143" y="270"/>
      <point x="210" y="279"/>
      <point x="252" y="279" type="curve" smooth="yes"/>
      <point x="295" y="279"/>
      <point x="359" y="270"/>
      <point x="412" y="270" type="curve" smooth="yes"/>
      <point x="434" y="270"/>
      <point x="448" y="284"/>
      <point x="448" y="302" type="curve" smooth="yes"/>
      <point x="448" y="321"/>
      <point x="433" y="336"/>
      <point x="412" y="336" type="curve" smooth="yes"/>
      <point x="359" y="336"/>
      <point x="295" y="327"/>
      <point x="252" y="327" type="curve" smooth="yes"/>
      <point x="203" y="327"/>
      <point x="143" y="336"/>
      <point x="87" y="336" type="curve" smooth="yes"/>
      <point x="69" y="336"/>
      <point x="50" y="321"/>
    </contour>
  </outline>
</glyph>
<glyph name="brevecomb.case" format="2">
  <outline>
    <contour>
      <point x="191" y="715" type="curve" smooth="yes"/>
      <point x="264" y="715"/>
      <point x="309" y="751"/>
      <point x="329" y="808" type="curve" smooth="yes"/>
      <point x="334" y="821"/>
      <point x="335" y="823"/>
      <point x="335" y="826" type="curve" smooth="yes"/>
      <point x="335" y="836"/>
      <point x="329" y="844"/>
      <point x="319" y="844" type="curve" smooth="yes"/>
      <point x="312" y="844"/>
      <point x="304" y="841"/>
      <point x="301" y="833" type="curve" smooth="yes"/>
      <point x="283" y="802"/>
      <point x="247" y="787"/>
      <point x="191" y="787" type="curve" smooth="yes"/>
      <point x="134" y="787"/>
      <point x="97" y="801"/>
      <point x="80" y="833" type="curve" smooth="yes"/>
      <point x="76" y="841"/>
      <point x="69" y="844"/>
      <point x="61" y="844" type="curve" smooth="yes"/>
      <point x="52" y="844"/>
      <point x="45" y="837"/>
      <point x="45" y="827" type="curve" smooth="yes"/>
      <point x="45" y="824"/>
      <point x="46" y="822"/>
      <point x="50" y="806" type="curve" smooth="yes"/>
      <point x="65" y="754"/>
      <point x="114" y="715"/>
    </contour>
  </outline>
</glyph>
<glyph name="dotaccentcomb" format="2">
  <outline>
    <contour>
      <point x="110" y="566" type="curve" smooth="yes"/>
      <point x="135" y="566"/>
      <point x="153" y="585"/>
      <point x="153" y="609" type="curve" smooth="yes"/>
      <point x="153" y="631"/>
      <point x="135" y="650"/>
      <point x="110" y="650" type="curve" smooth="yes"/>
      <point x="87" y="650"/>
      <point x="69" y="631"/>
      <point x="69" y="609" type="curve" smooth="yes"/>
      <point x="69" y="585"/>
      <point x="87" y="566"/>
    </contour>
  </outline>
</glyph>
<glyph name="kgreenlandic" format="2">
  <advance width="576"/>
  <outline>
    <contour>
      <point x="319" y="317" type="line"/>
      <point x="255" y="265" type="line"/>
      <point x="380" y="94" type="line" smooth="yes"/>
      <point x="387" y="85"/>
      <point x="391" y="76"/>
      <point x="391" y="66" type="curve" smooth="yes"/>
      <point x="391" y="53"/>
      <point x="385" y="47"/>
      <point x="369" y="43" type="curve" smooth="yes"/>
      <point x="353" y="40"/>
      <point x="342" y="34"/>
      <point x="342" y="20" type="curve" smooth="yes"/>
      <point x="342" y="7"/>
      <point x="354" y="0"/>
      <point x="371" y="0" type="curve" smooth="yes"/>
      <point x="546" y="0" type="line" smooth="yes"/>
      <point x="568" y="0"/>
      <point x="576" y="9"/>
      <point x="576" y="22" type="curve" smooth="yes"/>
      <point x="576" y="35"/>
      <point x="568" y="40"/>
      <point x="556" y="43" type="curve" smooth="yes"/>
      <point x="533" y="48"/>
      <point x="514" y="59"/>
      <point x="493" y="88" type="curve" smooth="yes"/>
    </contour>
    <contour>
      <point x="154" y="215" type="line"/>
      <point x="172" y="180" type="line"/>
      <point x="405" y="363" type="line" smooth="yes"/>
      <point x="448" y="396"/>
      <point x="478" y="412"/>
      <point x="517" y="425" type="curve" smooth="yes"/>
      <point x="529" y="429"/>
      <point x="537" y="434"/>
      <point x="537" y="447" type="curve" smooth="yes"/>
      <point x="537" y="458"/>
      <point x="529" y="466"/>
      <point x="507" y="466" type="curve" smooth="yes"/>
      <point x="353" y="466" type="line" smooth="yes"/>
      <point x="335" y="466"/>
      <point x="324" y="460"/>
      <point x="324" y="446" type="curve" smooth="yes"/>
      <point x="324" y="434"/>
      <point x="332" y="428"/>
      <point x="347" y="424" type="curve" smooth="yes"/>
      <point x="362" y="419"/>
      <point x="367" y="414"/>
      <point x="367" y="404" type="curve" smooth="yes"/>
      <point x="367" y="391"/>
      <point x="359" y="380"/>
      <point x="334" y="360" type="curve" smooth="yes"/>
    </contour>
    <component base="dotlessi"/>
  </outline>
</glyph>
<glyph name="macroncomb" format="2">
  <outline>
    <contour>
      <point x="59" y="562" type="curve" smooth="yes"/>
      <point x="59" y="544"/>
      <point x="71" y="532"/>
      <point x="91" y="532" type="curve" smooth="yes"/>
      <point x="321" y="532" type="line" smooth="yes"/>
      <point x="341" y="532"/>
      <point x="354" y="544"/>
      <point x="354" y="562" type="curve" smooth="yes"/>
      <point x="354" y="581"/>
      <point x="340" y="594"/>
      <point x="321" y="594" type="curve" smooth="yes"/>
      <point x="92" y="594" type="line" smooth="yes"/>
      <point x="73" y="594"/>
      <point x="59" y="581"/>
    </contour>
  </outline>
</glyph>
